<?xml version="1.0" ?>
<!DOCTYPE svg  PUBLIC '-//W3C//DTD SVG 1.1//EN'  'http://www.w3.org/Graphics/SVG/1.1/DTD/svg11.dtd'>
<!-- Uploaded to: SVG Repo, www.svgrepo.com, Generator: SVG Repo Mixer Tools -->
<svg width="800px" height="800px" viewBox="0 0 70.866 70.866" enable-background="new 0 0 70.865 70.866" id="圖層_1" version="1.1" xml:space="preserve" xmlns="http://www.w3.org/2000/svg" xmlns:xlink="http://www.w3.org/1999/xlink">
<g>
<polygon fill="#FFFFFF" points="42.177,7.386    48.609,7.386 42.62,26.846 30.198,26.846  " stroke="#00A0E9" stroke-linejoin="round" stroke-miterlimit="10" stroke-width="3"/>
<polygon fill="#FFFFFF" points="57.938,26.846    64.194,26.846 67.78,15.195 65.108,15.195  " stroke="#00A0E9" stroke-linejoin="round" stroke-miterlimit="10" stroke-width="3"/>
<polygon fill="#FFFFFF" points="67.78,38.664    65.108,38.664 62.598,34.586 65.918,32.613  " stroke="#00A0E9" stroke-linejoin="round" stroke-miterlimit="10" stroke-width="3"/>
<path d="M3.949,32.748   l1.448-0.857l11.188,0.553c1.508,0.074,2.511-1.535,1.779-2.855l-1.456-2.631c0.627-0.067,1.258-0.111,1.892-0.111h6.404h12.422   H64.87c1.344,0,2.608,0.84,2.959,2.137c0.353,1.305-0.219,2.626-1.322,3.281l-0.589,0.35l-3.32,1.973l-4.518,2.685   c-1.721,1.022-3.686,1.562-5.687,1.562H14.177c-0.163-0.02-0.324-0.039-0.487-0.059l-9.177-2.234   C2.71,36.1,2.352,33.692,3.949,32.748z" fill="#FFFFFF" stroke="#00A0E9" stroke-linejoin="round" stroke-miterlimit="10" stroke-width="3"/>
<path d="M5.397,31.891   l4.337-2.564c2.199-1.301,4.647-2.1,7.175-2.369l1.456,2.631c0.731,1.32-0.271,2.93-1.779,2.855L5.397,31.891z" fill="#FFFFFF" stroke="#00A0E9" stroke-linejoin="round" stroke-miterlimit="10" stroke-width="3"/>
<polygon fill="#FFFFFF" points="24.912,35.434    39.977,35.434 48.609,63.48 42.177,63.48  " stroke="#00A0E9" stroke-linejoin="round" stroke-miterlimit="10" stroke-width="3"/>
<line fill="#FFFFFF" stroke="#00A0E9" stroke-linejoin="round" stroke-miterlimit="10" stroke-width="3" x1="28.244" x2="28.244" y1="29.701" y2="31.096"/>
<line fill="#FFFFFF" stroke="#00A0E9" stroke-linejoin="round" stroke-miterlimit="10" stroke-width="3" x1="32.998" x2="32.998" y1="29.701" y2="31.096"/>
<line fill="#FFFFFF" stroke="#00A0E9" stroke-linejoin="round" stroke-miterlimit="10" stroke-width="3" x1="37.752" x2="37.752" y1="29.701" y2="31.096"/>
<line fill="#FFFFFF" stroke="#00A0E9" stroke-linejoin="round" stroke-miterlimit="10" stroke-width="3" x1="42.507" x2="42.507" y1="29.701" y2="31.096"/>
<line fill="#FFFFFF" stroke="#00A0E9" stroke-linejoin="round" stroke-miterlimit="10" stroke-width="3" x1="47.261" x2="47.261" y1="29.701" y2="31.096"/>
<line fill="#FFFFFF" stroke="#00A0E9" stroke-linejoin="round" stroke-miterlimit="10" stroke-width="3" x1="52.016" x2="52.016" y1="29.701" y2="31.096"/>
</g>
</svg>