<?xml version="1.0" encoding="iso-8859-1"?>
<!-- Uploaded to: SVG Repo, www.svgrepo.com, Generator: SVG Repo Mixer Tools -->
<svg fill="#000000" height="800px" width="800px" version="1.1" id="Layer_1" xmlns="http://www.w3.org/2000/svg" xmlns:xlink="http://www.w3.org/1999/xlink" 
	 viewBox="0 0 512 512" xml:space="preserve">
<g>
	<g>
		<path d="M297.796,169.906c-5.771,0-10.449,4.678-10.449,10.449v4.678c0,5.771,4.678,10.449,10.449,10.449
			c5.771,0,10.449-4.678,10.449-10.449v-4.678C308.245,174.584,303.567,169.906,297.796,169.906z"/>
	</g>
</g>
<g>
	<g>
		<path d="M214.204,169.906c-5.771,0-10.449,4.678-10.449,10.449v4.678c0,5.771,4.678,10.449,10.449,10.449
			c5.771,0,10.449-4.678,10.449-10.449v-4.678C224.653,174.584,219.975,169.906,214.204,169.906z"/>
	</g>
</g>
<g>
	<g>
		<path d="M480.911,66.718H370.939v-24.16c0-17.138-13.943-31.082-31.082-31.082H172.143c-17.138-0.001-31.082,13.943-31.082,31.082
			v24.161H31.089C13.946,66.719,0,80.665,0,97.808v143.402c0,8.177,3.179,15.622,8.359,21.179v206.788
			c0,17.285,14.062,31.347,31.347,31.347h432.588c17.285,0,31.347-14.062,31.347-31.347V262.388
			c5.181-5.556,8.359-13.001,8.359-21.179V97.808C512,80.665,498.054,66.718,480.911,66.718z M161.959,42.558
			c0-5.615,4.568-10.184,10.184-10.184h167.714c5.615,0,10.184,4.568,10.184,10.184v24.161H161.959V42.558z M482.743,469.178
			c0,5.762-4.687,10.449-10.449,10.449H39.706c-5.762,0-10.449-4.687-10.449-10.449V272.259
			c0.607,0.036,174.721,0.053,174.721,0.053c2.392,26.607,24.804,47.532,52.022,47.532s49.631-20.925,52.022-47.532
			c0,0,174.112-0.018,174.721-0.053V469.178z M224.653,267.6v-43.86h62.694v43.86c0,17.285-14.062,31.347-31.347,31.347
			S224.653,284.885,224.653,267.6z M491.102,241.211c0,5.618-4.571,10.19-10.191,10.19c-0.095,0-0.188,0.011-0.283,0.015H308.245
			v-38.122c0-5.771-4.678-10.449-10.449-10.449h-83.592c-5.771,0-10.449,4.678-10.449,10.449v38.122H31.371
			c-0.095-0.002-0.187-0.015-0.283-0.015c-5.619,0-10.191-4.571-10.191-10.19V97.808h0.001c0-5.619,4.571-10.192,10.191-10.192
			h172.666v58.934c0,5.771,4.678,10.449,10.449,10.449c5.771,0,10.449-4.678,10.449-10.449V87.617h62.694v58.934
			c0,5.771,4.678,10.449,10.449,10.449c5.771,0,10.449-4.678,10.449-10.449V87.617h172.666c5.619,0,10.191,4.571,10.191,10.192
			V241.211z"/>
	</g>
</g>
</svg>